<svg version="1.1" id="Layer_1" xmlns="http://www.w3.org/2000/svg" xmlns:xlink="http://www.w3.org/1999/xlink" x="0px" y="0px"
	 width="100%" viewBox="0 0 500 500" enable-background="new 0 0 500 500" xml:space="preserve">
<path fill="#000000" opacity="1.000000" stroke="none" 
	d="
M303.000000,501.000000 
	C202.000031,501.000000 101.500046,501.000000 1.000054,501.000000 
	C1.000036,334.333405 1.000036,167.666794 1.000018,1.000143 
	C167.666565,1.000096 334.333130,1.000096 500.999756,1.000048 
	C500.999847,167.666519 500.999847,334.333038 500.999939,500.999786 
	C435.166656,501.000000 369.333344,501.000000 303.000000,501.000000 
M137.700714,120.487740 
	C138.160843,119.998009 138.620972,119.508286 139.000519,119.053925 
	C139.000519,119.053925 139.035934,119.134483 139.765457,119.034859 
	C141.903152,117.683731 144.040863,116.332603 146.444534,114.965775 
	C146.444534,114.965775 146.697205,114.881310 147.440567,115.081917 
	C148.386047,114.383202 149.331528,113.684479 150.989029,112.921944 
	C164.183807,108.492477 177.298462,103.798996 190.611526,99.759384 
	C196.182343,98.069031 202.174225,97.766434 208.912369,96.972404 
	C217.298508,96.923958 225.684631,96.875519 234.810394,97.205376 
	C244.341553,98.889191 254.114120,99.742943 263.353485,102.430077 
	C282.430908,107.978462 300.215424,116.535500 316.117126,128.650024 
	C330.513733,139.617905 343.136108,152.387985 352.628937,167.805023 
	C358.576508,177.464340 364.023071,187.602982 368.236847,198.111038 
	C372.464722,208.654434 375.347046,219.813873 377.965118,230.904907 
	C380.599548,242.065262 380.804199,253.488861 379.056976,264.920776 
	C377.668915,274.002991 377.477478,283.349152 375.273102,292.209503 
	C369.822510,314.117615 360.682068,334.225861 346.133301,352.002472 
	C338.711517,361.070984 331.271240,369.937988 322.110443,377.108887 
	C314.587494,382.997711 306.512451,388.253815 298.331085,393.211029 
	C287.841827,399.566711 276.684296,404.500122 264.549622,407.037415 
	C255.982315,408.828857 247.583054,412.067017 238.955032,412.768494 
	C227.168579,413.726807 215.216064,413.281342 203.373352,412.678558 
	C195.816422,412.293915 188.109482,411.296387 180.866760,409.201324 
	C171.860367,406.596130 163.137589,402.861420 154.530182,399.073975 
	C147.887802,396.151215 141.611984,392.395386 134.879623,388.354675 
	C128.101562,383.485138 121.323486,378.615631 114.545418,373.746094 
	C114.799538,376.027740 115.690636,377.823914 117.026909,379.182068 
	C120.480927,382.692657 124.008987,386.153259 127.750336,389.349518 
	C129.922287,391.205017 132.562912,392.511902 134.996078,393.997864 
	C134.996078,393.997864 134.928192,394.000275 135.192780,394.518158 
	C135.794678,394.950867 136.396591,395.383575 137.597229,396.156189 
	C145.255142,401.132172 152.671082,406.539825 160.620285,410.996185 
	C178.331024,420.924866 197.514145,427.371582 217.548645,429.664948 
	C242.326492,432.501312 267.150940,432.459229 291.583527,425.212524 
	C309.473450,419.906372 326.466431,412.949005 341.988708,402.614929 
	C356.844849,392.724365 370.014648,381.062195 381.513214,367.216583 
	C393.217163,353.123688 402.298981,337.723969 409.431976,321.002716 
	C418.771545,299.108887 422.576996,276.082245 422.859802,252.471069 
	C422.966095,243.596909 422.133087,234.627289 420.794189,225.843567 
	C419.440094,216.959900 417.711151,207.976471 414.729980,199.537094 
	C410.942139,188.813980 406.548187,178.125671 400.916901,168.279510 
	C394.237701,156.601135 386.921204,145.004303 378.141174,134.881088 
	C366.855438,121.868950 354.027161,110.037941 338.804749,101.517555 
	C327.741455,95.325111 316.385773,89.546799 304.758453,84.512360 
	C298.170380,81.659828 290.803345,80.542870 283.728241,78.897461 
	C277.385834,77.422462 270.996124,75.436546 264.568634,75.187355 
	C250.189835,74.629883 235.701569,74.127907 221.398193,75.306419 
	C210.788147,76.180618 200.010040,78.678009 190.007446,82.357185 
	C176.800079,87.215126 163.937119,93.312912 151.580063,100.073097 
	C143.242676,104.634239 136.134979,111.402130 128.293655,116.922150 
	C119.755180,122.932930 112.988281,130.569473 106.332008,139.282608 
	C99.894051,145.663361 95.179390,153.193436 91.022552,161.095551 
	C91.487648,161.491943 91.952744,161.888336 92.417839,162.284744 
	C98.630074,155.192245 104.842308,148.099747 110.992737,141.002548 
	C110.992737,141.002548 111.006699,141.062927 111.606995,140.751892 
	C114.234795,138.412033 116.862587,136.072159 119.554749,133.295624 
	C119.554749,133.295624 119.118065,133.231186 119.781700,133.471375 
	C120.244797,132.975113 120.707886,132.478851 121.643822,131.726273 
	C122.088799,131.175217 122.533775,130.624146 123.697052,129.989120 
	C125.808624,128.323135 127.920197,126.657143 129.980682,124.969337 
	C129.980682,124.969337 129.984314,125.024773 130.690857,124.955826 
	C132.959229,123.541252 135.227600,122.126671 137.528412,120.239288 
	C137.528412,120.239288 137.055603,120.206779 137.700714,120.487740 
M121.925758,281.818848 
	C121.925758,281.818848 121.842995,282.071411 121.305168,282.482635 
	C120.873154,284.261292 120.441139,286.039978 119.328438,288.211334 
	C118.613838,291.087036 117.899246,293.962738 117.053345,297.733063 
	C117.043381,308.247192 116.512756,318.792450 117.139877,329.268463 
	C118.202560,347.020538 126.196739,361.938721 138.235855,374.621643 
	C148.534149,385.470612 161.678879,392.166412 175.629074,396.798767 
	C186.228256,400.318329 197.314636,402.408356 208.240875,404.884521 
	C211.927567,405.720062 215.788177,405.788208 219.569305,406.207062 
	C219.767899,405.702301 219.966507,405.197540 220.165100,404.692780 
	C206.499710,396.597626 194.746826,386.533844 185.955078,372.386841 
	C184.394119,370.304443 182.833160,368.222046 181.062866,365.370026 
	C178.971527,359.575684 176.880203,353.781342 174.897964,347.177002 
	C174.257111,338.825714 173.425095,330.483673 173.020462,322.120972 
	C172.422729,309.767120 175.536163,298.195190 180.952621,287.146698 
	C182.216537,284.568573 182.948425,281.729614 184.013779,278.993011 
	C184.013779,278.993011 183.996231,278.904327 184.614960,278.647736 
	C185.443771,277.649963 186.337509,276.698730 187.091293,275.647186 
	C194.681580,265.058716 203.469589,255.686981 214.728607,248.927139 
	C219.545303,246.035217 224.574142,243.496613 229.576523,240.235413 
	C229.392136,240.194855 229.207748,240.154297 229.775497,240.331635 
	C230.886261,239.887527 231.997025,239.443405 233.909103,238.963577 
	C244.664047,237.481750 255.395859,235.031021 266.180023,234.773636 
	C278.497986,234.479645 290.876923,236.255295 301.204041,244.164886 
	C303.977661,246.289230 306.164948,249.179123 308.621399,251.717575 
	C309.144470,251.610565 309.667511,251.503555 310.190552,251.396530 
	C310.190552,248.178986 309.645264,244.847015 310.291931,241.765137 
	C312.295837,232.214951 309.360779,223.676941 305.165771,215.527771 
	C301.429565,208.269882 297.087036,201.322083 288.013336,199.437485 
	C286.764893,199.178192 285.699280,197.389297 284.818695,196.121292 
	C281.075745,190.731552 278.265320,184.381363 273.589417,180.015015 
	C262.572662,169.727661 247.933060,167.763321 233.877182,167.321609 
	C204.742950,166.406097 175.560226,167.034042 146.397430,167.027481 
	C143.930054,167.026932 141.462677,167.027405 137.665939,167.027405 
	C154.247253,141.020981 175.865021,122.283417 201.766937,107.920097 
	C182.189728,110.126488 163.794220,116.503929 147.611908,127.346771 
	C123.588936,143.443207 104.996178,164.603439 92.255104,191.042740 
	C69.655365,237.939957 77.894989,296.951874 94.427277,320.982208 
	C95.291634,300.062561 101.002953,281.432587 114.245255,266.193573 
	C130.745285,247.205643 152.882248,233.790588 162.189026,235.653976 
	C143.786667,245.251129 128.143143,264.169800 122.306335,279.407135 
	C122.243111,280.149384 122.179878,280.891663 121.925758,281.818848 
M281.648956,389.930481 
	C282.599152,389.233887 283.549377,388.537292 285.658722,386.990936 
	C281.769531,386.645081 279.378418,386.432434 276.340668,386.124207 
	C275.907227,386.156036 275.473755,386.187866 274.512268,386.101471 
	C274.335724,386.138336 274.159149,386.175201 273.384705,386.088409 
	C272.980286,386.042694 272.575867,385.996979 271.947968,385.429840 
	C271.611511,385.329254 271.275085,385.228668 270.339935,385.047760 
	C269.938019,385.023163 269.536133,384.998596 268.773376,384.360596 
	C267.848938,384.305145 266.924469,384.249725 265.344177,383.842560 
	C239.751541,373.474030 225.904907,353.326477 223.361481,327.024231 
	C220.028351,292.555756 234.821594,266.884094 267.235474,252.089066 
	C259.837616,252.100647 252.415283,251.666107 245.475647,253.291946 
	C235.636581,255.597046 225.966293,259.039551 218.630463,266.739227 
	C213.758957,271.852356 207.882812,276.303467 204.130829,282.129303 
	C195.143906,296.083618 191.435516,311.647766 192.987106,328.373291 
	C194.430710,343.934875 199.260635,358.037231 210.118591,369.610321 
	C223.575882,383.953888 239.837158,392.379395 259.871735,391.909058 
	C266.924011,391.743469 273.952332,390.558075 281.648956,389.930481 
z"/>
<path fill="#741281" opacity="1.000000" stroke="none" 
	d="
M174.788879,347.987000 
	C176.880203,353.781342 178.971527,359.575684 180.970886,365.919800 
	C178.981262,365.761719 176.766571,365.464569 175.234985,364.282410 
	C159.954758,352.488159 146.677353,338.889923 137.214508,321.833160 
	C134.899139,317.659729 131.884750,313.874054 129.101379,309.731049 
	C129.011017,309.551971 128.920639,309.161102 128.910156,308.761719 
	C127.211555,304.592896 125.523445,300.823425 123.720879,296.821106 
	C123.470314,296.091034 123.334206,295.593872 123.299744,294.751587 
	C122.881920,290.294800 122.362457,286.183105 121.842995,282.071411 
	C121.842995,282.071411 121.925758,281.818848 122.127441,281.497375 
	C122.478706,280.474915 122.628296,279.773956 122.777878,279.072968 
	C128.143143,264.169800 143.786667,245.251129 162.189026,235.653976 
	C152.882248,233.790588 130.745285,247.205643 114.245255,266.193573 
	C101.002953,281.432587 95.291634,300.062561 94.427277,320.982208 
	C77.894989,296.951874 69.655365,237.939957 92.255104,191.042740 
	C104.996178,164.603439 123.588936,143.443207 147.611908,127.346771 
	C163.794220,116.503929 182.189728,110.126488 201.766937,107.920097 
	C175.865021,122.283417 154.247253,141.020981 137.665939,167.027405 
	C141.462677,167.027405 143.930054,167.026932 146.397430,167.027481 
	C175.560226,167.034042 204.742950,166.406097 233.877182,167.321609 
	C247.933060,167.763321 262.572662,169.727661 273.589417,180.015015 
	C278.265320,184.381363 281.075745,190.731552 284.818695,196.121292 
	C285.699280,197.389297 286.764893,199.178192 288.013336,199.437485 
	C297.087036,201.322083 301.429565,208.269882 305.165771,215.527771 
	C309.360779,223.676941 312.295837,232.214951 310.291931,241.765137 
	C309.645264,244.847015 310.190552,248.178986 310.190552,251.396530 
	C309.667511,251.503555 309.144470,251.610565 308.621399,251.717575 
	C306.164948,249.179123 303.977661,246.289230 301.204041,244.164886 
	C290.876923,236.255295 278.497986,234.479645 266.180023,234.773636 
	C255.395859,235.031021 244.664047,237.481750 233.154190,239.005890 
	C231.273972,239.403366 230.148666,239.758545 229.023361,240.113708 
	C229.207748,240.154297 229.392136,240.194855 229.142700,240.467865 
	C226.213318,241.449646 223.614914,241.961212 221.239487,242.988388 
	C209.291061,248.154999 199.891083,256.751251 191.434830,266.307648 
	C188.262115,269.893158 186.436188,274.670410 183.996246,278.904327 
	C183.996231,278.904327 184.013779,278.993011 183.705109,279.203339 
	C180.986176,283.713959 177.937592,287.782928 176.280365,292.356110 
	C170.329208,308.778778 169.777664,325.779510 172.196350,342.923492 
	C172.446686,344.697937 173.895920,346.303223 174.788879,347.987000 
M241.975952,204.930130 
	C244.744263,205.244827 247.623077,206.208069 250.261185,205.758575 
	C260.093994,204.083237 269.854950,201.978439 279.623535,199.942032 
	C281.076477,199.639145 282.425720,198.838882 283.822968,198.268738 
	C283.736633,197.831024 283.650330,197.393295 283.564026,196.955582 
	C275.178955,196.955582 266.755920,197.443039 258.421417,196.793823 
	C252.293076,196.316452 246.295807,194.272202 240.206024,193.104034 
	C238.644073,192.804413 236.181305,192.551498 235.502365,193.388443 
	C234.485641,194.641815 233.788528,197.517654 234.540771,198.567062 
	C236.257462,200.961884 238.936447,202.666885 241.975952,204.930130 
z"/>
<path fill="#741381" opacity="1.000000" stroke="none" 
	d="
M135.173187,389.009949 
	C141.611984,392.395386 147.887802,396.151215 154.530182,399.073975 
	C163.137589,402.861420 171.860367,406.596130 180.866760,409.201324 
	C188.109482,411.296387 195.816422,412.293915 203.373352,412.678558 
	C215.216064,413.281342 227.168579,413.726807 238.955032,412.768494 
	C247.583054,412.067017 255.982315,408.828857 264.549622,407.037415 
	C276.684296,404.500122 287.841827,399.566711 298.331085,393.211029 
	C306.512451,388.253815 314.587494,382.997711 322.110443,377.108887 
	C331.271240,369.937988 338.711517,361.070984 346.133301,352.002472 
	C360.682068,334.225861 369.822510,314.117615 375.273102,292.209503 
	C377.477478,283.349152 377.668915,274.002991 379.056976,264.920776 
	C380.804199,253.488861 380.599548,242.065262 377.965118,230.904907 
	C375.347046,219.813873 372.464722,208.654434 368.236847,198.111038 
	C364.023071,187.602982 358.576508,177.464340 352.628937,167.805023 
	C343.136108,152.387985 330.513733,139.617905 316.117126,128.650024 
	C300.215424,116.535500 282.430908,107.978462 263.353485,102.430077 
	C254.114120,99.742943 244.341553,98.889191 234.075043,96.803879 
	C224.884689,96.545883 216.429672,96.689384 207.974670,96.832886 
	C202.174225,97.766434 196.182343,98.069031 190.611526,99.759384 
	C177.298462,103.798996 164.183807,108.492477 150.284134,112.996651 
	C148.618561,113.674675 147.657883,114.277992 146.697205,114.881310 
	C146.697205,114.881310 146.444534,114.965775 145.918671,115.005508 
	C143.273849,116.408325 141.154892,117.771408 139.035934,119.134491 
	C139.035934,119.134483 139.000519,119.053925 138.773041,119.156609 
	C138.048904,119.575127 137.552261,119.890953 137.055603,120.206779 
	C137.055603,120.206779 137.528412,120.239288 137.131241,120.445816 
	C134.484146,122.109825 132.234238,123.567299 129.984314,125.024773 
	C129.984314,125.024773 129.980682,124.969337 129.634689,125.013557 
	C127.185387,126.729546 125.082069,128.401321 122.978745,130.073090 
	C122.533775,130.624146 122.088799,131.175217 121.126144,131.968170 
	C120.111671,132.550446 119.614868,132.890808 119.118065,133.231186 
	C119.118065,133.231186 119.554749,133.295624 119.159149,133.498840 
	C114.894157,134.802841 111.792458,136.712616 111.006699,141.062927 
	C111.006699,141.062927 110.992737,141.002548 110.677101,140.961060 
	C109.224892,140.265427 108.088326,139.611267 106.951759,138.957108 
	C112.988281,130.569473 119.755180,122.932930 128.293655,116.922150 
	C136.134979,111.402130 143.242676,104.634239 151.580063,100.073097 
	C163.937119,93.312912 176.800079,87.215126 190.007446,82.357185 
	C200.010040,78.678009 210.788147,76.180618 221.398193,75.306419 
	C235.701569,74.127907 250.189835,74.629883 264.568634,75.187355 
	C270.996124,75.436546 277.385834,77.422462 283.728241,78.897461 
	C290.803345,80.542870 298.170380,81.659828 304.758453,84.512360 
	C316.385773,89.546799 327.741455,95.325111 338.804749,101.517555 
	C354.027161,110.037941 366.855438,121.868950 378.141174,134.881088 
	C386.921204,145.004303 394.237701,156.601135 400.916901,168.279510 
	C406.548187,178.125671 410.942139,188.813980 414.729980,199.537094 
	C417.711151,207.976471 419.440094,216.959900 420.794189,225.843567 
	C422.133087,234.627289 422.966095,243.596909 422.859802,252.471069 
	C422.576996,276.082245 418.771545,299.108887 409.431976,321.002716 
	C402.298981,337.723969 393.217163,353.123688 381.513214,367.216583 
	C370.014648,381.062195 356.844849,392.724365 341.988708,402.614929 
	C326.466431,412.949005 309.473450,419.906372 291.583527,425.212524 
	C267.150940,432.459229 242.326492,432.501312 217.548645,429.664948 
	C197.514145,427.371582 178.331024,420.924866 160.620285,410.996185 
	C152.671082,406.539825 145.255142,401.132172 137.138092,395.757507 
	C136.095352,394.905975 135.511780,394.453125 134.928192,394.000275 
	C134.928192,394.000275 134.996078,393.997864 134.932251,393.700745 
	C134.970016,391.939087 135.071609,390.474548 135.173187,389.009949 
z"/>
<path fill="#1967B0" opacity="1.000000" stroke="none" 
	d="
M272.171448,385.951263 
	C272.575867,385.996979 272.980286,386.042694 273.812531,386.196228 
	C274.240356,386.304047 274.646729,386.323029 274.646729,386.323029 
	C274.646729,386.323029 275.040314,386.219666 275.040314,386.219666 
	C275.473755,386.187866 275.907227,386.156036 276.953979,386.313446 
	C278.708710,387.614563 279.850159,388.726440 280.991608,389.838318 
	C273.952332,390.558075 266.924011,391.743469 259.871735,391.909058 
	C239.837158,392.379395 223.575882,383.953888 210.118591,369.610321 
	C199.260635,358.037231 194.430710,343.934875 192.987106,328.373291 
	C191.435516,311.647766 195.143906,296.083618 204.130829,282.129303 
	C207.882812,276.303467 213.758957,271.852356 218.630463,266.739227 
	C225.966293,259.039551 235.636581,255.597046 245.475647,253.291946 
	C252.415283,251.666107 259.837616,252.100647 267.235474,252.089066 
	C234.821594,266.884094 220.028351,292.555756 223.361481,327.024231 
	C225.904907,353.326477 239.751541,373.474030 265.858337,384.188721 
	C267.293060,384.681244 268.213654,384.827606 269.134216,384.973999 
	C269.536133,384.998596 269.938019,385.023163 270.834839,385.241028 
	C271.592957,385.634949 271.873505,385.807251 272.171448,385.951263 
z"/>
<path fill="#E2531F" opacity="1.000000" stroke="none" 
	d="
M128.920639,309.161102 
	C128.920639,309.161102 129.011017,309.551971 129.125031,310.094543 
	C140.750076,336.056030 158.861023,355.780579 181.754639,371.338440 
	C183.066299,372.229797 184.845367,372.433350 186.406906,372.957001 
	C194.746826,386.533844 206.499710,396.597626 220.165100,404.692780 
	C219.966507,405.197540 219.767899,405.702301 219.569305,406.207062 
	C215.788177,405.788208 211.927567,405.720062 208.240875,404.884521 
	C197.314636,402.408356 186.228256,400.318329 175.629074,396.798767 
	C161.678879,392.166412 148.534149,385.470612 138.235855,374.621643 
	C126.196739,361.938721 118.202560,347.020538 117.139877,329.268463 
	C116.512756,318.792450 117.043381,308.247192 117.343513,297.127869 
	C119.122612,295.687042 118.955002,291.939545 122.149673,294.160583 
	C122.213562,294.331268 122.307137,294.683563 122.288445,295.053009 
	C122.876137,296.941925 123.482521,298.461365 124.059402,299.985413 
	C124.029900,299.989960 124.054367,299.935486 124.122589,300.214233 
	C124.473526,300.987854 124.756233,301.482697 125.020218,301.988770 
	C125.001495,302.000000 125.041954,301.979340 125.069344,302.301880 
	C125.470680,303.388062 125.844627,304.151733 126.354050,305.151367 
	C126.664017,305.902008 126.838509,306.416656 127.083313,307.221741 
	C127.482895,308.003601 127.812157,308.494965 128.332489,309.046692 
	C128.523575,309.107025 128.920639,309.161102 128.920639,309.161102 
z"/>
<path fill="#8C1B60" opacity="1.000000" stroke="none" 
	d="
M186.181000,372.671936 
	C184.845367,372.433350 183.066299,372.229797 181.754639,371.338440 
	C158.861023,355.780579 140.750076,336.056030 129.215393,310.273621 
	C131.884750,313.874054 134.899139,317.659729 137.214508,321.833160 
	C146.677353,338.889923 159.954758,352.488159 175.234985,364.282410 
	C176.766571,365.464569 178.981262,365.761719 181.075562,366.304626 
	C182.833160,368.222046 184.394119,370.304443 186.181000,372.671936 
z"/>
<path fill="#6A2174" opacity="1.000000" stroke="none" 
	d="
M174.843414,347.582001 
	C173.895920,346.303223 172.446686,344.697937 172.196350,342.923492 
	C169.777664,325.779510 170.329208,308.778778 176.280365,292.356110 
	C177.937592,287.782928 180.986176,283.713959 183.660782,279.212158 
	C182.948425,281.729614 182.216537,284.568573 180.952621,287.146698 
	C175.536163,298.195190 172.422729,309.767120 173.020462,322.120972 
	C173.425095,330.483673 174.257111,338.825714 174.843414,347.582001 
z"/>
<path fill="#6A2174" opacity="1.000000" stroke="none" 
	d="
M184.305603,278.776031 
	C186.436188,274.670410 188.262115,269.893158 191.434830,266.307648 
	C199.891083,256.751251 209.291061,248.154999 221.239487,242.988388 
	C223.614914,241.961212 226.213318,241.449646 229.107758,240.748901 
	C224.574142,243.496613 219.545303,246.035217 214.728607,248.927139 
	C203.469589,255.686981 194.681580,265.058716 187.091293,275.647186 
	C186.337509,276.698730 185.443771,277.649963 184.305603,278.776031 
z"/>
<path fill="#732F7C" opacity="1.000000" stroke="none" 
	d="
M106.641884,139.119858 
	C108.088326,139.611267 109.224892,140.265427 110.708008,140.963409 
	C104.842308,148.099747 98.630074,155.192245 92.417839,162.284744 
	C91.952744,161.888336 91.487648,161.491943 91.022552,161.095551 
	C95.179390,153.193436 99.894051,145.663361 106.641884,139.119858 
z"/>
<path fill="#702C7A" opacity="1.000000" stroke="none" 
	d="
M135.026398,388.682312 
	C135.071609,390.474548 134.970016,391.939087 134.930542,393.734680 
	C132.562912,392.511902 129.922287,391.205017 127.750336,389.349518 
	C124.008987,386.153259 120.480927,382.692657 117.026909,379.182068 
	C115.690636,377.823914 114.799538,376.027740 114.545418,373.746094 
	C121.323486,378.615631 128.101562,383.485138 135.026398,388.682312 
z"/>
<path fill="#9B62A5" opacity="1.000000" stroke="none" 
	d="
M208.443512,96.902641 
	C216.429672,96.689384 224.884689,96.545883 233.705231,96.614731 
	C225.684631,96.875519 217.298508,96.923958 208.443512,96.902641 
z"/>
<path fill="#8C1B60" opacity="1.000000" stroke="none" 
	d="
M122.307137,294.683563 
	C122.307137,294.683563 122.213562,294.331268 122.123596,293.792480 
	C121.358803,291.442017 120.683968,289.630310 120.009125,287.818634 
	C120.441139,286.039978 120.873154,284.261292 121.574081,282.277039 
	C122.362457,286.183105 122.881920,290.294800 123.078453,294.644165 
	C122.755516,294.881805 122.307137,294.683563 122.307137,294.683563 
z"/>
<path fill="#C54B46" opacity="1.000000" stroke="none" 
	d="
M119.668785,288.014984 
	C120.683968,289.630310 121.358803,291.442017 122.059708,293.621826 
	C118.955002,291.939545 119.122612,295.687042 117.409164,296.680573 
	C117.899246,293.962738 118.613838,291.087036 119.668785,288.014984 
z"/>
<path fill="#732F7C" opacity="1.000000" stroke="none" 
	d="
M111.306847,140.907410 
	C111.792458,136.712616 114.894157,134.802841 119.126968,133.717163 
	C116.862587,136.072159 114.234795,138.412033 111.306847,140.907410 
z"/>
<path fill="#732F7C" opacity="1.000000" stroke="none" 
	d="
M139.400696,119.084671 
	C141.154892,117.771408 143.273849,116.408325 145.785690,115.013351 
	C144.040863,116.332603 141.903152,117.683731 139.400696,119.084671 
z"/>
<path fill="#732F7C" opacity="1.000000" stroke="none" 
	d="
M123.337906,130.031097 
	C125.082069,128.401321 127.185387,126.729546 129.660233,125.024460 
	C127.920197,126.657143 125.808624,128.323135 123.337906,130.031097 
z"/>
<path fill="#732F7C" opacity="1.000000" stroke="none" 
	d="
M130.337585,124.990295 
	C132.234238,123.567299 134.484146,122.109825 137.115021,120.682220 
	C135.227600,122.126671 132.959229,123.541252 130.337585,124.990295 
z"/>
<path fill="#2464A1" opacity="1.000000" stroke="none" 
	d="
M281.320282,389.884399 
	C279.850159,388.726440 278.708710,387.614563 277.277283,386.361237 
	C279.378418,386.432434 281.769531,386.645081 285.658722,386.990936 
	C283.549377,388.537292 282.599152,389.233887 281.320282,389.884399 
z"/>
<path fill="#732F7C" opacity="1.000000" stroke="none" 
	d="
M147.068878,114.981613 
	C147.657883,114.277992 148.618561,113.674675 149.928131,113.028557 
	C149.331528,113.684479 148.386047,114.383202 147.068878,114.981613 
z"/>
<path fill="#2464A1" opacity="1.000000" stroke="none" 
	d="
M268.953796,384.667297 
	C268.213654,384.827606 267.293060,384.681244 266.186279,384.364563 
	C266.924469,384.249725 267.848938,384.305145 268.953796,384.667297 
z"/>
<path fill="#6A2174" opacity="1.000000" stroke="none" 
	d="
M229.399429,240.222672 
	C230.148666,239.758545 231.273972,239.403366 232.753540,239.023743 
	C231.997025,239.443405 230.886261,239.887527 229.399429,240.222672 
z"/>
<path fill="#8C1B60" opacity="1.000000" stroke="none" 
	d="
M122.542107,279.240051 
	C122.628296,279.773956 122.478706,280.474915 122.222885,281.404907 
	C122.179878,280.891663 122.243111,280.149384 122.542107,279.240051 
z"/>
<path fill="#702C7A" opacity="1.000000" stroke="none" 
	d="
M135.060486,394.259216 
	C135.511780,394.453125 136.095352,394.905975 136.838715,395.587555 
	C136.396591,395.383575 135.794678,394.950867 135.060486,394.259216 
z"/>
<path fill="#732F7C" opacity="1.000000" stroke="none" 
	d="
M119.449883,133.351288 
	C119.614868,132.890808 120.111671,132.550446 120.889725,132.096329 
	C120.707886,132.478851 120.244797,132.975113 119.449883,133.351288 
z"/>
<path fill="#732F7C" opacity="1.000000" stroke="none" 
	d="
M137.378159,120.347260 
	C137.552261,119.890953 138.048904,119.575127 138.813324,119.138924 
	C138.620972,119.508286 138.160843,119.998009 137.378159,120.347260 
z"/>
<path fill="#2464A1" opacity="1.000000" stroke="none" 
	d="
M272.059692,385.690552 
	C271.873505,385.807251 271.592957,385.634949 271.134216,385.281189 
	C271.275085,385.228668 271.611511,385.329254 272.059692,385.690552 
z"/>
<path fill="#2464A1" opacity="1.000000" stroke="none" 
	d="
M274.776306,386.160583 
	C275.040314,386.219666 274.646729,386.323029 274.646729,386.323029 
	C274.646729,386.323029 274.240356,386.304047 274.111450,386.258057 
	C274.159149,386.175201 274.335724,386.138336 274.776306,386.160583 
z"/>
<path fill="#000000" opacity="1.000000" stroke="none" 
	d="
M241.600220,204.791122 
	C238.936447,202.666885 236.257462,200.961884 234.540771,198.567062 
	C233.788528,197.517654 234.485641,194.641815 235.502365,193.388443 
	C236.181305,192.551498 238.644073,192.804413 240.206024,193.104034 
	C246.295807,194.272202 252.293076,196.316452 258.421417,196.793823 
	C266.755920,197.443039 275.178955,196.955582 283.564026,196.955582 
	C283.650330,197.393295 283.736633,197.831024 283.822968,198.268738 
	C282.425720,198.838882 281.076477,199.639145 279.623535,199.942032 
	C269.854950,201.978439 260.093994,204.083237 250.261185,205.758575 
	C247.623077,206.208069 244.744263,205.244827 241.600220,204.791122 
z"/>
<path fill="#8C1B60" opacity="1.000000" stroke="none" 
	d="
M128.910156,308.761719 
	C128.920639,309.161102 128.523575,309.107025 128.247101,308.762115 
	C127.651413,307.921906 127.332214,307.426605 127.013000,306.931305 
	C126.838509,306.416656 126.664017,305.902008 126.305496,304.833282 
	C125.761620,303.512573 125.401787,302.745972 125.041946,301.979340 
	C125.041954,301.979340 125.001495,302.000000 124.972321,301.702972 
	C124.646889,300.915802 124.350624,300.425629 124.054367,299.935486 
	C124.054367,299.935486 124.029900,299.989960 124.041283,299.618286 
	C123.980225,298.515747 123.907776,297.784851 123.835335,297.053955 
	C125.523445,300.823425 127.211555,304.592896 128.910156,308.761719 
z"/>
<path fill="#C54B46" opacity="1.000000" stroke="none" 
	d="
M123.720879,296.821106 
	C123.907776,297.784851 123.980225,298.515747 124.070786,299.613739 
	C123.482521,298.461365 122.876137,296.941925 122.288445,295.053009 
	C122.307137,294.683563 122.755516,294.881805 122.976807,294.989258 
	C123.334206,295.593872 123.470314,296.091034 123.720879,296.821106 
z"/>
<path fill="#C54B46" opacity="1.000000" stroke="none" 
	d="
M125.069336,302.301880 
	C125.401787,302.745972 125.761620,303.512573 126.170013,304.597290 
	C125.844627,304.151733 125.470680,303.388062 125.069336,302.301880 
z"/>
<path fill="#C54B46" opacity="1.000000" stroke="none" 
	d="
M127.083321,307.221741 
	C127.332214,307.426605 127.651413,307.921906 128.056015,308.701782 
	C127.812157,308.494965 127.482895,308.003601 127.083321,307.221741 
z"/>
<path fill="#C54B46" opacity="1.000000" stroke="none" 
	d="
M124.122589,300.214233 
	C124.350624,300.425629 124.646889,300.915802 124.991051,301.691772 
	C124.756233,301.482697 124.473526,300.987854 124.122589,300.214233 
z"/>
</svg>